<?xml version="1.0" encoding="iso-8859-1"?>
<!-- Generator: Adobe Illustrator 18.0.0, SVG Export Plug-In . SVG Version: 6.00 Build 0)  -->
<!DOCTYPE svg PUBLIC "-//W3C//DTD SVG 1.1//EN" "http://www.w3.org/Graphics/SVG/1.1/DTD/svg11.dtd">
<svg version="1.1" id="Capa_1" xmlns="http://www.w3.org/2000/svg" xmlns:xlink="http://www.w3.org/1999/xlink" x="0px" y="0px"
	 viewBox="0 0 206.738 206.738" style="enable-background:new 0 0 206.738 206.738;" xml:space="preserve">
<g>
	<path d="M135.326,63.912H71.413c-4.143,0-7.5,3.357-7.5,7.5v63.914c0,4.143,3.358,7.5,7.5,7.5h63.913c4.143,0,7.5-3.357,7.5-7.5
		V71.412C142.826,67.27,139.469,63.912,135.326,63.912z M127.826,127.826H78.913V78.912h48.913V127.826z"/>
	<path d="M199.238,110.869c4.143,0,7.5-3.357,7.5-7.5s-3.357-7.5-7.5-7.5h-24.455V78.912h24.455c4.143,0,7.5-3.357,7.5-7.5
		c0-4.143-3.357-7.5-7.5-7.5h-24.455V39.455c0-4.143-3.357-7.5-7.5-7.5h-24.457V7.5c0-4.143-3.357-7.5-7.5-7.5
		c-4.143,0-7.5,3.357-7.5,7.5v24.455h-16.957V7.5c0-4.143-3.357-7.5-7.5-7.5s-7.5,3.357-7.5,7.5v24.455H78.913V7.5
		c0-4.143-3.357-7.5-7.5-7.5c-4.143,0-7.5,3.357-7.5,7.5v24.455H39.456c-4.143,0-7.5,3.358-7.5,7.5v24.457H7.5
		c-4.143,0-7.5,3.357-7.5,7.5c0,4.143,3.357,7.5,7.5,7.5h24.456v16.957H7.5c-4.143,0-7.5,3.357-7.5,7.5s3.357,7.5,7.5,7.5h24.456
		v16.957H7.5c-4.143,0-7.5,3.357-7.5,7.5c0,4.143,3.357,7.5,7.5,7.5h24.456v24.457c0,4.143,3.357,7.5,7.5,7.5h24.457v24.455
		c0,4.143,3.358,7.5,7.5,7.5c4.143,0,7.5-3.357,7.5-7.5v-24.455h16.956v24.455c0,4.143,3.357,7.5,7.5,7.5s7.5-3.357,7.5-7.5v-24.455
		h16.957v24.455c0,4.143,3.357,7.5,7.5,7.5c4.143,0,7.5-3.357,7.5-7.5v-24.455h24.457c4.143,0,7.5-3.357,7.5-7.5v-24.457h24.455
		c4.143,0,7.5-3.357,7.5-7.5c0-4.143-3.357-7.5-7.5-7.5h-24.455v-16.957H199.238z M159.783,159.783H46.956V46.955h112.827V159.783z"
		/>
</g>
<g>
</g>
<g>
</g>
<g>
</g>
<g>
</g>
<g>
</g>
<g>
</g>
<g>
</g>
<g>
</g>
<g>
</g>
<g>
</g>
<g>
</g>
<g>
</g>
<g>
</g>
<g>
</g>
<g>
</g>
</svg>
